<mxfile host="app.diagrams.net" modified="2021-04-17T07:30:10.027Z" agent="5.0 (Windows NT 6.1; Win64; x64) AppleWebKit/537.36 (KHTML, like Gecko) Chrome/89.0.4389.128 Safari/537.36" etag="zVrPpODCC_jbTiFcJAuB" version="14.6.1" type="github">
  <diagram id="C5RBs43oDa-KdzZeNtuy" name="Page-1">
    <mxGraphModel dx="2249" dy="762" grid="1" gridSize="10" guides="1" tooltips="1" connect="1" arrows="1" fold="1" page="1" pageScale="1" pageWidth="827" pageHeight="1169" math="0" shadow="0">
      <root>
        <mxCell id="WIyWlLk6GJQsqaUBKTNV-0" />
        <mxCell id="WIyWlLk6GJQsqaUBKTNV-1" parent="WIyWlLk6GJQsqaUBKTNV-0" />
        <mxCell id="WIyWlLk6GJQsqaUBKTNV-3" value="Nhận đơn hàng Sale" style="rounded=1;whiteSpace=wrap;html=1;fontSize=12;glass=0;strokeWidth=1;shadow=0;fillColor=#f8cecc;strokeColor=#b85450;" parent="WIyWlLk6GJQsqaUBKTNV-1" vertex="1">
          <mxGeometry x="-68" y="10" width="120" height="40" as="geometry" />
        </mxCell>
        <mxCell id="X6HuN95wONWi_erXb1ap-1" value="" style="edgeStyle=orthogonalEdgeStyle;rounded=0;orthogonalLoop=1;jettySize=auto;html=1;" parent="WIyWlLk6GJQsqaUBKTNV-1" source="WIyWlLk6GJQsqaUBKTNV-6" target="X6HuN95wONWi_erXb1ap-0" edge="1">
          <mxGeometry relative="1" as="geometry" />
        </mxCell>
        <mxCell id="X6HuN95wONWi_erXb1ap-5" value="" style="edgeStyle=orthogonalEdgeStyle;rounded=0;orthogonalLoop=1;jettySize=auto;html=1;" parent="WIyWlLk6GJQsqaUBKTNV-1" source="WIyWlLk6GJQsqaUBKTNV-6" target="X6HuN95wONWi_erXb1ap-4" edge="1">
          <mxGeometry relative="1" as="geometry" />
        </mxCell>
        <mxCell id="WIyWlLk6GJQsqaUBKTNV-6" value="Check thẻ kho" style="rhombus;whiteSpace=wrap;html=1;shadow=0;fontFamily=Helvetica;fontSize=12;align=center;strokeWidth=1;spacing=6;spacingTop=-4;fillColor=#dae8fc;strokeColor=#6c8ebf;" parent="WIyWlLk6GJQsqaUBKTNV-1" vertex="1">
          <mxGeometry x="-58" y="245" width="125" height="90" as="geometry" />
        </mxCell>
        <mxCell id="WIyWlLk6GJQsqaUBKTNV-10" value="Check giá" style="rhombus;whiteSpace=wrap;html=1;shadow=0;fontFamily=Helvetica;fontSize=12;align=center;strokeWidth=1;spacing=6;spacingTop=-4;fillColor=#dae8fc;strokeColor=#6c8ebf;" parent="WIyWlLk6GJQsqaUBKTNV-1" vertex="1">
          <mxGeometry x="-273" y="640" width="120" height="80" as="geometry" />
        </mxCell>
        <mxCell id="X6HuN95wONWi_erXb1ap-9" value="" style="edgeStyle=orthogonalEdgeStyle;rounded=0;orthogonalLoop=1;jettySize=auto;html=1;" parent="WIyWlLk6GJQsqaUBKTNV-1" source="X6HuN95wONWi_erXb1ap-0" target="X6HuN95wONWi_erXb1ap-8" edge="1">
          <mxGeometry relative="1" as="geometry" />
        </mxCell>
        <mxCell id="X6HuN95wONWi_erXb1ap-0" value="Còn hàng tồn kho" style="whiteSpace=wrap;html=1;shadow=0;strokeColor=#6c8ebf;strokeWidth=1;fillColor=#dae8fc;spacing=6;spacingTop=-4;" parent="WIyWlLk6GJQsqaUBKTNV-1" vertex="1">
          <mxGeometry x="170" y="260" width="120" height="60" as="geometry" />
        </mxCell>
        <mxCell id="X6HuN95wONWi_erXb1ap-7" value="" style="edgeStyle=orthogonalEdgeStyle;rounded=0;orthogonalLoop=1;jettySize=auto;html=1;" parent="WIyWlLk6GJQsqaUBKTNV-1" source="X6HuN95wONWi_erXb1ap-4" target="X6HuN95wONWi_erXb1ap-6" edge="1">
          <mxGeometry relative="1" as="geometry" />
        </mxCell>
        <mxCell id="X6HuN95wONWi_erXb1ap-4" value="Không còn hàng tồn kho" style="whiteSpace=wrap;html=1;shadow=0;strokeColor=#6c8ebf;strokeWidth=1;fillColor=#dae8fc;spacing=6;spacingTop=-4;" parent="WIyWlLk6GJQsqaUBKTNV-1" vertex="1">
          <mxGeometry x="-273" y="415" width="120" height="60" as="geometry" />
        </mxCell>
        <mxCell id="X6HuN95wONWi_erXb1ap-11" value="" style="edgeStyle=orthogonalEdgeStyle;rounded=0;orthogonalLoop=1;jettySize=auto;html=1;" parent="WIyWlLk6GJQsqaUBKTNV-1" source="X6HuN95wONWi_erXb1ap-6" target="X6HuN95wONWi_erXb1ap-10" edge="1">
          <mxGeometry relative="1" as="geometry" />
        </mxCell>
        <mxCell id="X6HuN95wONWi_erXb1ap-13" value="" style="edgeStyle=orthogonalEdgeStyle;rounded=0;orthogonalLoop=1;jettySize=auto;html=1;" parent="WIyWlLk6GJQsqaUBKTNV-1" source="X6HuN95wONWi_erXb1ap-6" edge="1">
          <mxGeometry relative="1" as="geometry">
            <mxPoint x="-353" y="560" as="targetPoint" />
          </mxGeometry>
        </mxCell>
        <mxCell id="X6HuN95wONWi_erXb1ap-6" value="SP đã mua trước đó" style="rhombus;whiteSpace=wrap;html=1;shadow=0;strokeColor=#6c8ebf;strokeWidth=1;fillColor=#dae8fc;spacing=6;spacingTop=-4;" parent="WIyWlLk6GJQsqaUBKTNV-1" vertex="1">
          <mxGeometry x="-273" y="520" width="120" height="80" as="geometry" />
        </mxCell>
        <mxCell id="X6HuN95wONWi_erXb1ap-8" value="Báo lại Sale" style="whiteSpace=wrap;html=1;shadow=0;strokeColor=#6c8ebf;strokeWidth=1;fillColor=#dae8fc;spacing=6;spacingTop=-4;" parent="WIyWlLk6GJQsqaUBKTNV-1" vertex="1">
          <mxGeometry x="354" y="275" width="120" height="30" as="geometry" />
        </mxCell>
        <mxCell id="X6HuN95wONWi_erXb1ap-10" value="Xác định NCC cần check giá" style="rhombus;whiteSpace=wrap;html=1;shadow=0;strokeColor=#6c8ebf;strokeWidth=1;fillColor=#dae8fc;spacing=6;spacingTop=-4;" parent="WIyWlLk6GJQsqaUBKTNV-1" vertex="1">
          <mxGeometry x="-73" y="520" width="120" height="80" as="geometry" />
        </mxCell>
        <mxCell id="X6HuN95wONWi_erXb1ap-12" value="Xem lại đã từng nhập NCC nào" style="rhombus;whiteSpace=wrap;html=1;shadow=0;strokeColor=#6c8ebf;strokeWidth=1;fillColor=#dae8fc;spacing=6;spacingTop=-4;" parent="WIyWlLk6GJQsqaUBKTNV-1" vertex="1">
          <mxGeometry x="-473" y="520" width="120" height="80" as="geometry" />
        </mxCell>
        <mxCell id="X6HuN95wONWi_erXb1ap-14" value="Có" style="text;html=1;strokeColor=none;fillColor=none;align=center;verticalAlign=middle;whiteSpace=wrap;rounded=0;" parent="WIyWlLk6GJQsqaUBKTNV-1" vertex="1">
          <mxGeometry x="-328" y="540" width="40" height="20" as="geometry" />
        </mxCell>
        <mxCell id="X6HuN95wONWi_erXb1ap-15" value="Không" style="text;html=1;strokeColor=none;fillColor=none;align=center;verticalAlign=middle;whiteSpace=wrap;rounded=0;" parent="WIyWlLk6GJQsqaUBKTNV-1" vertex="1">
          <mxGeometry x="-128" y="540" width="40" height="20" as="geometry" />
        </mxCell>
        <mxCell id="X6HuN95wONWi_erXb1ap-19" value="" style="endArrow=classic;html=1;exitX=0.5;exitY=1;exitDx=0;exitDy=0;" parent="WIyWlLk6GJQsqaUBKTNV-1" source="X6HuN95wONWi_erXb1ap-10" edge="1">
          <mxGeometry width="50" height="50" relative="1" as="geometry">
            <mxPoint x="-53" y="750" as="sourcePoint" />
            <mxPoint x="-153" y="680" as="targetPoint" />
            <Array as="points">
              <mxPoint x="-13" y="680" />
            </Array>
          </mxGeometry>
        </mxCell>
        <mxCell id="X6HuN95wONWi_erXb1ap-21" value="" style="endArrow=classic;html=1;exitX=0.5;exitY=1;exitDx=0;exitDy=0;" parent="WIyWlLk6GJQsqaUBKTNV-1" edge="1">
          <mxGeometry width="50" height="50" relative="1" as="geometry">
            <mxPoint x="-413" y="600" as="sourcePoint" />
            <mxPoint x="-278" y="680" as="targetPoint" />
            <Array as="points">
              <mxPoint x="-413" y="680" />
            </Array>
          </mxGeometry>
        </mxCell>
        <mxCell id="X6HuN95wONWi_erXb1ap-22" value="Vào Bid giá" style="rounded=1;whiteSpace=wrap;html=1;fillColor=#dae8fc;strokeColor=#6c8ebf;" parent="WIyWlLk6GJQsqaUBKTNV-1" vertex="1">
          <mxGeometry x="-273" y="760" width="120" height="60" as="geometry" />
        </mxCell>
        <mxCell id="X6HuN95wONWi_erXb1ap-23" value="Duyệt Nhập, Duyệt Chi" style="rounded=1;whiteSpace=wrap;html=1;fillColor=#dae8fc;strokeColor=#6c8ebf;" parent="WIyWlLk6GJQsqaUBKTNV-1" vertex="1">
          <mxGeometry x="-273" y="860" width="120" height="60" as="geometry" />
        </mxCell>
        <mxCell id="X6HuN95wONWi_erXb1ap-24" value="" style="endArrow=classic;html=1;entryX=0;entryY=0.5;entryDx=0;entryDy=0;exitX=0;exitY=0.5;exitDx=0;exitDy=0;" parent="WIyWlLk6GJQsqaUBKTNV-1" source="X6HuN95wONWi_erXb1ap-22" target="X6HuN95wONWi_erXb1ap-23" edge="1">
          <mxGeometry width="50" height="50" relative="1" as="geometry">
            <mxPoint x="-368" y="710" as="sourcePoint" />
            <mxPoint x="-188" y="760" as="targetPoint" />
            <Array as="points">
              <mxPoint x="-368" y="790" />
              <mxPoint x="-368" y="840" />
              <mxPoint x="-368" y="890" />
            </Array>
          </mxGeometry>
        </mxCell>
        <mxCell id="X6HuN95wONWi_erXb1ap-25" value="" style="endArrow=classic;html=1;" parent="WIyWlLk6GJQsqaUBKTNV-1" edge="1">
          <mxGeometry width="50" height="50" relative="1" as="geometry">
            <mxPoint x="-152" y="790" as="sourcePoint" />
            <mxPoint x="-152" y="890" as="targetPoint" />
            <Array as="points">
              <mxPoint x="-68" y="790" />
              <mxPoint x="-68" y="890" />
            </Array>
          </mxGeometry>
        </mxCell>
        <mxCell id="X6HuN95wONWi_erXb1ap-26" value="" style="endArrow=classic;html=1;exitX=0.5;exitY=1;exitDx=0;exitDy=0;entryX=0.5;entryY=0;entryDx=0;entryDy=0;" parent="WIyWlLk6GJQsqaUBKTNV-1" source="WIyWlLk6GJQsqaUBKTNV-10" target="X6HuN95wONWi_erXb1ap-22" edge="1">
          <mxGeometry width="50" height="50" relative="1" as="geometry">
            <mxPoint x="-238" y="810" as="sourcePoint" />
            <mxPoint x="-188" y="760" as="targetPoint" />
          </mxGeometry>
        </mxCell>
        <mxCell id="X6HuN95wONWi_erXb1ap-27" value="10h30 - 11h30" style="text;html=1;strokeColor=none;fillColor=none;align=center;verticalAlign=middle;whiteSpace=wrap;rounded=0;" parent="WIyWlLk6GJQsqaUBKTNV-1" vertex="1">
          <mxGeometry x="-470" y="770" width="100" height="20" as="geometry" />
        </mxCell>
        <mxCell id="X6HuN95wONWi_erXb1ap-28" value="17h - 17h30" style="text;html=1;strokeColor=none;fillColor=none;align=center;verticalAlign=middle;whiteSpace=wrap;rounded=0;" parent="WIyWlLk6GJQsqaUBKTNV-1" vertex="1">
          <mxGeometry x="-58" y="820" width="90" height="20" as="geometry" />
        </mxCell>
        <mxCell id="X6HuN95wONWi_erXb1ap-29" value="Time duyệt" style="text;html=1;strokeColor=none;fillColor=none;align=center;verticalAlign=middle;whiteSpace=wrap;rounded=0;" parent="WIyWlLk6GJQsqaUBKTNV-1" vertex="1">
          <mxGeometry x="-457.5" y="750" width="75" height="20" as="geometry" />
        </mxCell>
        <mxCell id="X6HuN95wONWi_erXb1ap-30" value="Time duyệt" style="text;html=1;strokeColor=none;fillColor=none;align=center;verticalAlign=middle;whiteSpace=wrap;rounded=0;" parent="WIyWlLk6GJQsqaUBKTNV-1" vertex="1">
          <mxGeometry x="-58" y="800" width="75" height="20" as="geometry" />
        </mxCell>
        <mxCell id="X6HuN95wONWi_erXb1ap-31" value="Báo NCC nhập hàng" style="rhombus;whiteSpace=wrap;html=1;fillColor=#dae8fc;strokeColor=#6c8ebf;" parent="WIyWlLk6GJQsqaUBKTNV-1" vertex="1">
          <mxGeometry x="-268" y="960" width="110" height="80" as="geometry" />
        </mxCell>
        <mxCell id="X6HuN95wONWi_erXb1ap-32" value="" style="endArrow=classic;html=1;exitX=0.5;exitY=1;exitDx=0;exitDy=0;entryX=0.5;entryY=0;entryDx=0;entryDy=0;" parent="WIyWlLk6GJQsqaUBKTNV-1" source="X6HuN95wONWi_erXb1ap-23" target="X6HuN95wONWi_erXb1ap-31" edge="1">
          <mxGeometry width="50" height="50" relative="1" as="geometry">
            <mxPoint x="-168" y="970" as="sourcePoint" />
            <mxPoint x="-118" y="920" as="targetPoint" />
          </mxGeometry>
        </mxCell>
        <mxCell id="X6HuN95wONWi_erXb1ap-33" value="Sếp ok" style="text;html=1;strokeColor=none;fillColor=none;align=center;verticalAlign=middle;whiteSpace=wrap;rounded=0;" parent="WIyWlLk6GJQsqaUBKTNV-1" vertex="1">
          <mxGeometry x="-218" y="930" width="70" height="20" as="geometry" />
        </mxCell>
        <mxCell id="N58S7EJvCqBCOXNaPNwh-0" value="Kho" style="rhombus;whiteSpace=wrap;html=1;fillColor=#dae8fc;strokeColor=#6c8ebf;" vertex="1" parent="WIyWlLk6GJQsqaUBKTNV-1">
          <mxGeometry x="-273" y="1070" width="120" height="80" as="geometry" />
        </mxCell>
        <mxCell id="N58S7EJvCqBCOXNaPNwh-1" value="Pur" style="rhombus;whiteSpace=wrap;html=1;fillColor=#dae8fc;strokeColor=#6c8ebf;" vertex="1" parent="WIyWlLk6GJQsqaUBKTNV-1">
          <mxGeometry x="-88" y="1070" width="120" height="80" as="geometry" />
        </mxCell>
        <mxCell id="N58S7EJvCqBCOXNaPNwh-2" value="Sale" style="rounded=1;whiteSpace=wrap;html=1;fillColor=#f8cecc;strokeColor=#b85450;" vertex="1" parent="WIyWlLk6GJQsqaUBKTNV-1">
          <mxGeometry x="117" y="1090" width="120" height="40" as="geometry" />
        </mxCell>
        <mxCell id="N58S7EJvCqBCOXNaPNwh-3" value="" style="endArrow=classic;html=1;exitX=0.5;exitY=1;exitDx=0;exitDy=0;" edge="1" parent="WIyWlLk6GJQsqaUBKTNV-1" source="X6HuN95wONWi_erXb1ap-31" target="N58S7EJvCqBCOXNaPNwh-0">
          <mxGeometry width="50" height="50" relative="1" as="geometry">
            <mxPoint x="-133" y="1000" as="sourcePoint" />
            <mxPoint x="-83" y="950" as="targetPoint" />
          </mxGeometry>
        </mxCell>
        <mxCell id="N58S7EJvCqBCOXNaPNwh-4" value="" style="endArrow=classic;html=1;exitX=1;exitY=0.5;exitDx=0;exitDy=0;" edge="1" parent="WIyWlLk6GJQsqaUBKTNV-1" source="N58S7EJvCqBCOXNaPNwh-0" target="N58S7EJvCqBCOXNaPNwh-1">
          <mxGeometry width="50" height="50" relative="1" as="geometry">
            <mxPoint x="-133" y="1000" as="sourcePoint" />
            <mxPoint x="-83" y="950" as="targetPoint" />
          </mxGeometry>
        </mxCell>
        <mxCell id="N58S7EJvCqBCOXNaPNwh-5" value="" style="endArrow=classic;html=1;exitX=1;exitY=0.5;exitDx=0;exitDy=0;entryX=0;entryY=0.5;entryDx=0;entryDy=0;" edge="1" parent="WIyWlLk6GJQsqaUBKTNV-1" source="N58S7EJvCqBCOXNaPNwh-1" target="N58S7EJvCqBCOXNaPNwh-2">
          <mxGeometry width="50" height="50" relative="1" as="geometry">
            <mxPoint x="-133" y="1000" as="sourcePoint" />
            <mxPoint x="-83" y="950" as="targetPoint" />
          </mxGeometry>
        </mxCell>
        <mxCell id="N58S7EJvCqBCOXNaPNwh-6" value="Báo lại kho time hàng về" style="text;html=1;strokeColor=none;fillColor=none;align=center;verticalAlign=middle;whiteSpace=wrap;rounded=0;" vertex="1" parent="WIyWlLk6GJQsqaUBKTNV-1">
          <mxGeometry x="-218" y="1040" width="115" height="20" as="geometry" />
        </mxCell>
        <mxCell id="N58S7EJvCqBCOXNaPNwh-7" value="Nhận hàng xong báo Pur hàng về" style="text;html=1;strokeColor=none;fillColor=none;align=center;verticalAlign=middle;whiteSpace=wrap;rounded=0;" vertex="1" parent="WIyWlLk6GJQsqaUBKTNV-1">
          <mxGeometry x="-163" y="1110" width="90" height="50" as="geometry" />
        </mxCell>
        <mxCell id="N58S7EJvCqBCOXNaPNwh-8" value="Báo Sale hàng về" style="text;html=1;strokeColor=none;fillColor=none;align=center;verticalAlign=middle;whiteSpace=wrap;rounded=0;" vertex="1" parent="WIyWlLk6GJQsqaUBKTNV-1">
          <mxGeometry x="32" y="1120" width="70" height="20" as="geometry" />
        </mxCell>
        <mxCell id="N58S7EJvCqBCOXNaPNwh-9" value="Đơn check giá" style="rounded=0;whiteSpace=wrap;html=1;" vertex="1" parent="WIyWlLk6GJQsqaUBKTNV-1">
          <mxGeometry x="-188" y="110" width="120" height="40" as="geometry" />
        </mxCell>
        <mxCell id="N58S7EJvCqBCOXNaPNwh-10" value="Đơn đặt hàng" style="rounded=0;whiteSpace=wrap;html=1;" vertex="1" parent="WIyWlLk6GJQsqaUBKTNV-1">
          <mxGeometry x="60" y="110" width="120" height="40" as="geometry" />
        </mxCell>
        <mxCell id="N58S7EJvCqBCOXNaPNwh-11" value="" style="endArrow=classic;html=1;exitX=0;exitY=0.5;exitDx=0;exitDy=0;entryX=0.5;entryY=0;entryDx=0;entryDy=0;" edge="1" parent="WIyWlLk6GJQsqaUBKTNV-1" source="WIyWlLk6GJQsqaUBKTNV-3" target="N58S7EJvCqBCOXNaPNwh-9">
          <mxGeometry width="50" height="50" relative="1" as="geometry">
            <mxPoint x="-130" y="250" as="sourcePoint" />
            <mxPoint x="-140" y="30" as="targetPoint" />
            <Array as="points">
              <mxPoint x="-128" y="30" />
            </Array>
          </mxGeometry>
        </mxCell>
        <mxCell id="N58S7EJvCqBCOXNaPNwh-12" value="" style="endArrow=classic;html=1;exitX=1;exitY=0.5;exitDx=0;exitDy=0;entryX=0.5;entryY=0;entryDx=0;entryDy=0;" edge="1" parent="WIyWlLk6GJQsqaUBKTNV-1" source="WIyWlLk6GJQsqaUBKTNV-3" target="N58S7EJvCqBCOXNaPNwh-10">
          <mxGeometry width="50" height="50" relative="1" as="geometry">
            <mxPoint x="-130" y="250" as="sourcePoint" />
            <mxPoint x="130" y="30" as="targetPoint" />
            <Array as="points">
              <mxPoint x="120" y="30" />
            </Array>
          </mxGeometry>
        </mxCell>
      </root>
    </mxGraphModel>
  </diagram>
</mxfile>
